<svg width="17" height="18" viewBox="0 0 17 18" fill="none" xmlns="http://www.w3.org/2000/svg">
<path fill-rule="evenodd" clip-rule="evenodd" d="M2.17415 1.00496C2.43937 1.00476 2.6938 1.10992 2.88149 1.29731C3.06917 1.4847 3.17472 1.73898 3.17493 2.00419L3.17655 4.10519C4.00793 3.25582 5.04184 2.63206 6.18089 2.29265C7.31994 1.95325 8.52664 1.90938 9.68733 2.16517C10.848 2.42096 11.9245 2.96799 12.8154 3.75474C13.7062 4.5415 14.3822 5.54207 14.7795 6.66223C14.8277 6.78695 14.8504 6.92007 14.8463 7.05371C14.8421 7.18736 14.8112 7.31881 14.7554 7.44031C14.6995 7.5618 14.6199 7.67086 14.5212 7.76104C14.4225 7.85121 14.3067 7.92068 14.1806 7.96532C14.0546 8.00996 13.9209 8.02887 13.7874 8.02093C13.6539 8.013 13.5234 7.97837 13.4035 7.91911C13.2837 7.85985 13.1769 7.77715 13.0896 7.67591C13.0022 7.57467 12.9361 7.45694 12.895 7.32968C12.5925 6.47673 12.0643 5.72184 11.3665 5.14544C10.6688 4.56904 9.82779 4.19274 8.93307 4.05663C8.03836 3.92051 7.12347 4.02969 6.28591 4.37253C5.44835 4.71537 4.7195 5.27902 4.17702 6.00342L7.17801 6.0011C7.44323 6.0009 7.69767 6.10606 7.88535 6.29345C8.07303 6.48084 8.17858 6.73511 8.17879 7.00033C8.17899 7.26554 8.07383 7.51998 7.88644 7.70766C7.69905 7.89534 7.44478 8.0009 7.17956 8.0011L2.17956 8.00496C1.91434 8.00517 1.65991 7.90001 1.47223 7.71262C1.28455 7.52522 1.17899 7.27095 1.17879 7.00574L1.17493 2.00574C1.17472 1.74052 1.27988 1.48609 1.46727 1.2984C1.65466 1.11072 1.90894 1.00517 2.17415 1.00496ZM2.18915 10.062C2.31295 10.0181 2.44418 9.9991 2.57533 10.006C2.70648 10.0129 2.835 10.0455 2.95353 10.1021C3.07206 10.1586 3.1783 10.238 3.26616 10.3356C3.35403 10.4332 3.4218 10.5472 3.46562 10.671C3.76814 11.5239 4.29641 12.2788 4.99413 12.8552C5.69185 13.4316 6.53287 13.8079 7.42759 13.944C8.32231 14.0801 9.23719 13.971 10.0747 13.6281C10.9123 13.2853 11.6412 12.7216 12.1836 11.9972L9.18265 11.9996C8.91743 11.9998 8.663 11.8946 8.47532 11.7072C8.28764 11.5198 8.18208 11.2655 8.18188 11.0003C8.18167 10.7351 8.28683 10.4807 8.47422 10.293C8.66162 10.1053 8.91589 9.99976 9.1811 9.99955L14.1811 9.99569C14.4463 9.99549 14.7008 10.1006 14.8884 10.288C15.0761 10.4754 15.1817 10.7297 15.1819 10.9949L15.1857 15.9949C15.1859 16.2601 15.0808 16.5146 14.8934 16.7023C14.706 16.8899 14.4517 16.9955 14.1865 16.9957C13.9213 16.9959 13.6669 16.8907 13.4792 16.7033C13.2915 16.516 13.1859 16.2617 13.1857 15.9965L13.1841 13.8955C12.3527 14.7448 11.3188 15.3686 10.1798 15.708C9.04072 16.0474 7.83402 16.0913 6.67333 15.8355C5.51264 15.5797 4.43616 15.0327 3.54529 14.2459C2.65442 13.4592 1.97848 12.4586 1.58114 11.3384C1.5373 11.2146 1.51828 11.0834 1.52516 10.9522C1.53205 10.8211 1.5647 10.6926 1.62125 10.574C1.6778 10.4555 1.75715 10.3493 1.85477 10.2614C1.95238 10.1736 2.06534 10.1058 2.18915 10.062Z" fill="#1C3144"/>
</svg>
