<svg width="17" height="17" viewBox="0 0 17 17" fill="none" xmlns="http://www.w3.org/2000/svg">
<path fill-rule="evenodd" clip-rule="evenodd" d="M9.75405 11.6121C9.52181 11.6123 9.29915 11.7047 9.13506 11.8691C8.97096 12.0334 8.87888 12.2562 8.87906 12.4884C8.87923 12.7207 8.97167 12.9433 9.13601 13.1074C9.30036 13.2715 9.52316 13.3636 9.7554 13.3634L14.1338 13.3601C14.366 13.3599 14.5887 13.2674 14.7528 13.1031C14.9169 12.9388 15.0089 12.7159 15.0088 12.4837L15.0054 8.10535C15.0052 7.8731 14.9128 7.65044 14.7484 7.48635C14.5841 7.32226 14.3613 7.23017 14.129 7.23035C13.8968 7.23053 13.6741 7.32296 13.51 7.48731C13.3459 7.65165 13.2539 7.87446 13.254 8.1067L13.2558 10.3712L9.49362 6.61483C9.32928 6.45079 9.10652 6.35874 8.87432 6.35892C8.64212 6.3591 8.4195 6.4515 8.25542 6.61579L6.24905 8.62525L2.48689 4.8689C2.32161 4.70952 2.10035 4.62142 1.87075 4.6236C1.64115 4.62577 1.42159 4.71803 1.25936 4.88051C1.09713 5.043 1.00521 5.2627 1.00339 5.4923C1.00157 5.7219 1.09001 5.94302 1.24964 6.10805L5.63139 10.483C5.79573 10.6471 6.01849 10.7391 6.25069 10.7389C6.48288 10.7388 6.7055 10.6464 6.86959 10.4821L8.87595 8.47261L12.0185 11.6103L9.75405 11.6121Z" fill="white"/>
</svg>
