<svg width="17" height="17" viewBox="0 0 17 17" fill="none" xmlns="http://www.w3.org/2000/svg">
<path fill-rule="evenodd" clip-rule="evenodd" d="M13.1922 2.58691C12.8744 2.58715 12.5698 2.71362 12.3453 2.93847L11.7126 3.57213L13.4083 5.26517L14.0409 4.63152C14.2655 4.40666 14.3914 4.10182 14.3912 3.78407C14.391 3.46632 14.2645 3.16168 14.0396 2.93717C13.8148 2.71265 13.5099 2.58666 13.1922 2.58691ZM15.1711 5.75996C15.6949 5.23536 15.9889 4.52417 15.9883 3.78284C15.9877 3.04151 15.6927 2.33077 15.1681 1.80697C14.6435 1.28318 13.9323 0.989237 13.191 0.989809C12.4496 0.990382 11.7389 1.28542 11.2151 1.81003L10.0186 3.00836L0.257886 12.7842C0.108245 12.9341 0.0242691 13.1372 0.0244328 13.349L0.0266364 16.2014C0.0269771 16.6425 0.384776 16.9997 0.825803 16.9994L3.62072 16.9972C3.83251 16.997 4.03556 16.9128 4.1852 16.7629L15.1711 5.75996ZM12.2798 6.39536L10.5842 4.70232L1.62179 13.6786L1.62312 15.4017L3.28872 15.4004L12.2798 6.39536Z" fill="white"/>
</svg>
