<svg width="17" height="18" viewBox="0 0 17 18" fill="none" xmlns="http://www.w3.org/2000/svg">
<path fill-rule="evenodd" clip-rule="evenodd" d="M3.30031 2.782C3.06456 2.78219 2.83854 2.87601 2.67197 3.04284C2.5054 3.20967 2.41193 3.43583 2.41211 3.67158L2.4176 10.7827C2.41778 11.0184 2.51161 11.2445 2.67844 11.411C2.84526 11.5776 3.07143 11.6711 3.30718 11.6709L4.19607 11.6702L4.19263 7.22576C4.19209 6.51852 4.47251 5.84002 4.97222 5.33954C5.47193 4.83906 6.14999 4.55758 6.85724 4.55703L11.3017 4.5536L11.301 3.66471C11.3008 3.42896 11.207 3.20294 11.0402 3.03637C10.8733 2.8698 10.6472 2.77633 10.4114 2.77651L3.30031 2.782ZM13.0795 4.55223L13.0788 3.66334C13.0782 2.95609 12.7967 2.27803 12.2963 1.77832C11.7958 1.27861 11.1173 0.998186 10.41 0.998733L3.29894 1.00423C2.59169 1.00477 1.91363 1.28625 1.41392 1.78673C0.914212 2.28721 0.633785 2.96571 0.634331 3.67295L0.639825 10.7841C0.640371 11.4913 0.921846 12.1694 1.42233 12.6691C1.92281 13.1688 2.60131 13.4492 3.30855 13.4487L4.19744 13.448L4.19813 14.3369C4.19867 15.0441 4.48015 15.7222 4.98063 16.2219C5.48111 16.7216 6.15961 17.002 6.86685 17.0015L13.978 16.996C14.6852 16.9954 15.3633 16.714 15.863 16.2135C16.3627 15.713 16.6431 15.0345 16.6426 14.3273L16.6371 7.21615C16.6365 6.5089 16.3551 5.83084 15.8546 5.33113C15.3541 4.83142 14.6756 4.55099 13.9683 4.55154L13.0795 4.55223ZM6.85861 6.33481C6.62286 6.33499 6.39684 6.42882 6.23027 6.59565C6.0637 6.76247 5.97023 6.98864 5.97041 7.22439L5.9759 14.3355C5.97609 14.5712 6.06991 14.7973 6.23674 14.9638C6.40357 15.1304 6.62973 15.2239 6.86548 15.2237L13.9766 15.2182C14.2123 15.218 14.4384 15.1242 14.6049 14.9574C14.7715 14.7905 14.865 14.5644 14.8648 14.3286L14.8593 7.21752C14.8591 6.98177 14.7653 6.75575 14.5985 6.58918C14.4316 6.42261 14.2055 6.32914 13.9697 6.32932L6.85861 6.33481Z" fill="#1C3144"/>
</svg>
