<svg width="49" height="49" viewBox="0 0 49 49" fill="none" xmlns="http://www.w3.org/2000/svg">
<path fill-rule="evenodd" clip-rule="evenodd" d="M0.00368516 5.80014C0.00266117 4.47466 1.07635 3.39932 2.40183 3.39829L33.6018 3.37419C34.9273 3.37316 36.0027 4.44685 36.0037 5.77233C36.0047 7.09782 34.931 8.17316 33.6055 8.17419L2.40554 8.19829C1.08006 8.19931 0.00470916 7.12563 0.00368516 5.80014ZM0.0111016 15.4001C0.0100776 14.0747 1.08376 12.9993 2.40925 12.9983L24.0092 12.9816C25.3347 12.9806 26.4101 14.0543 26.4111 15.3797C26.4121 16.7052 25.3384 17.7806 24.0129 17.7816L2.41296 17.7983C1.08747 17.7993 0.0121256 16.7256 0.0111016 15.4001ZM33.6156 21.1683L28.1169 26.6755C27.1803 27.6135 25.6607 27.6146 24.7228 26.6781C23.7848 25.7416 23.7836 24.222 24.7201 23.284L34.3127 13.6766C35.2493 12.7386 36.7689 12.7374 37.7068 13.674L47.3143 23.2665C48.2522 24.2031 48.2534 25.7227 47.3169 26.6607C46.3803 27.5986 44.8607 27.5998 43.9228 26.6633L38.4156 21.1646L38.4333 44.1705C38.4344 45.4959 37.3607 46.5713 36.0352 46.5723C34.7097 46.5733 33.6344 45.4997 33.6333 44.1742L33.6156 21.1683ZM0.018518 25.0001C0.017494 23.6747 1.09118 22.5993 2.41666 22.5983L16.8167 22.5872C18.1421 22.5861 19.2175 23.6598 19.2185 24.9853C19.2195 26.3108 18.1459 27.3861 16.8204 27.3872L2.42037 27.3983C1.09489 27.3993 0.019542 26.3256 0.018518 25.0001Z" fill="white"/>
</svg>
